# xmcd
#
# Track frame offsets:
#	150
#	15651
#	31793
#	47518
#	62480
#	77392
#	93463
#	109344
#	124890
#	140092
#	154261
#	170958
#	186113
#	200762
#
# Disc length: 2899 seconds
#
# Revision: 1
# Processed by: cddbd v1.5.2PL0 Copyright (c) Steve Scherf et al.
# Submitted via: audiograbber 1.83.01
#
DISCID=bf0b510e
DTITLE=Fernando Express - Pretty Flamingo
DYEAR=2012
DGENRE=Schlager
TTITLE0=Pretty Flamingo (Club Version)
TTITLE1=Sonne, Mond und Sterne (Sommer Mix)
TTITLE2=Pretty Flamingo (Instrumental)
TTITLE3=Bonjour l`amour (Instrumental)
TTITLE4=So spielt das Leben (Instrumental)
TTITLE5=Amore blu (Instrumental)
TTITLE6=Sonne, Mond und Sterne (Instrumental)
TTITLE7=Mama Jamaica (Instrumental)
TTITLE8=Mein Herz sagt ja (Instrumental)
TTITLE9=Der Junge mit der Balalaika (Instrumental)
TTITLE10=Santa Cruz (Instrumental)
TTITLE11=Summerfeeling (Instrumental)
TTITLE12=Das alles bist du (Instrumental)
TTITLE13=Sag nicht auf wiederseh`n (Instrumental)
EXTD=
EXTT0=
EXTT1=
EXTT2=
EXTT3=
EXTT4=
EXTT5=
EXTT6=
EXTT7=
EXTT8=
EXTT9=
EXTT10=
EXTT11=
EXTT12=
EXTT13=
PLAYORDER=
